IKResults
version=1
nRows=14
nColumns=40
inDegrees=yes

Units are S.I. units (second, meters, Newtons, ...)
Angles are in degrees.

endheader
time	pelvis_tilt	pelvis_list	pelvis_rotation	pelvis_tx	pelvis_ty	pelvis_tz	hip_flexion_r	hip_adduction_r	hip_rotation_r	knee_angle_r	knee_angle_r_beta	ankle_angle_r	subtalar_angle_r	mtp_angle_r	hip_flexion_l	hip_adduction_l	hip_rotation_l	knee_angle_l	knee_angle_l_beta	ankle_angle_l	subtalar_angle_l	mtp_angle_l	lumbar_extension	lumbar_bending	lumbar_rotation	arm_flex_r	arm_add_r	arm_rot_r	elbow_flex_r	pro_sup_r	wrist_flex_r	wrist_dev_r	arm_flex_l	arm_add_l	arm_rot_l	elbow_flex_l	pro_sup_l	wrist_flex_l	wrist_dev_l
      1.38000000	     15.21513334	     -4.11220771	      2.40023328	      0.56322526	      0.92494043	     -1.03653641	      7.18360323	      1.27627307	    -30.00836042	    -13.96056424	     -0.24365781	      0.13082240	     10.45682628	    -10.00458826	    -27.20393329	      3.55478088	     11.03620346	    -18.69883541	     -0.32635624	     16.08020272	      3.22625101	     -5.82431277	    -21.83440426	      5.65618308	     -5.03284227	    -12.56390326	    -10.49305336	      5.09092280	     20.56396176	     89.95437384	      0.00000000	      0.00000000	     17.03231211	     13.58967721	     10.08833315	     48.52679402	     89.95437384	      0.00000000	      0.00000000
      1.39000000	     14.98926904	     -3.83391741	      2.67248178	      0.57385001	      0.92364486	     -1.03619494	      7.33119965	      1.23114281	    -28.46985829	    -14.80402871	     -0.25837904	      0.09398824	      6.60745339	     -9.24811316	    -27.49101885	      3.17437506	      8.79847047	    -18.96431909	     -0.33098981	     16.14775868	      6.04202154	     -5.72248439	    -21.44152484	      5.47248822	     -5.41769162	    -12.37697118	    -10.35590104	      4.54136044	     20.25202297	     89.95437384	      0.00000000	      0.00000000	     16.68268216	     13.49745709	     10.30034757	     49.01126301	     89.95437384	      0.00000000	      0.00000000
      1.40000000	     14.98845679	     -3.83517126	      3.01149728	      0.58507236	      0.92250745	     -1.03560086	      7.30217512	      1.23006797	    -28.15735960	    -16.16420922	     -0.28211867	     -0.01330543	      5.39532013	     -8.89888455	    -27.76849605	      3.46991513	      8.30456288	    -19.79218750	     -0.34543884	     15.74900306	      6.14362849	     -5.61562903	    -21.20173757	      5.58252593	     -5.65305760	    -12.41876747	    -10.37455215	      4.45409530	     20.26146692	     89.95437384	      0.00000000	      0.00000000	     16.33579140	     13.42994636	     10.26753164	     49.34942858	     89.95437384	      0.00000000	      0.00000000
      1.41000000	     14.99105760	     -3.89197038	      3.74608896	      0.59602097	      0.92184753	     -1.03538857	      7.17314570	      1.32123991	    -28.34290237	    -16.88568964	     -0.29471088	     -1.89546514	      3.11111892	     -8.08649783	    -27.91272824	      3.88502878	      6.81719875	    -20.73652845	     -0.36192070	     15.40500339	      7.16110246	     -5.51278866	    -20.97508382	      5.88186692	     -6.26693319	    -12.27242634	    -10.31312495	      4.18027529	     20.10543874	     89.95437384	      0.00000000	      0.00000000	     15.97585505	     13.32970931	     10.35720041	     49.53570752	     89.95437384	      0.00000000	      0.00000000
      1.42000000	     14.97016116	     -4.03828036	      3.92433844	      0.60700906	      0.92146137	     -1.03461603	      7.24295002	      1.35961137	    -27.61002674	    -17.76124007	     -0.30999212	     -2.40699544	      2.67848761	     -7.83956477	    -28.02993575	      4.20454681	      6.26165829	    -21.75424883	     -0.37968327	     14.74603823	      7.29186143	     -5.35506389	    -20.76893897	      6.13525641	     -6.28138109	    -12.22897766	    -10.40491743	      4.14970406	     20.21504576	     89.95437384	      0.00000000	      0.00000000	     15.67419980	     13.12625196	     10.36536782	     49.46124887	     89.95437384	      0.00000000	      0.00000000
      1.43000000	     15.09406554	     -4.57242508	      4.72065614	      0.61803265	      0.92189326	     -1.03413447	      6.84901575	      2.01427687	    -27.23987318	    -18.05807523	     -0.31517287	     -2.98759163	      0.13602684	     -7.58370276	    -28.04555537	      5.07583399	      4.73177883	    -23.07960718	     -0.40281514	     14.13107885	      9.15633411	     -5.11309350	    -20.62713982	      6.94976265	     -6.80047898	    -11.89756038	    -10.37375444	      3.95867417	     19.89758571	     89.95437384	      0.00000000	      0.00000000	     15.28612858	     12.90791291	     10.51108745	     49.23158153	     89.95437384	      0.00000000	      0.00000000
      1.44000000	     15.20842873	     -4.95329195	      4.86220355	      0.62923329	      0.92260258	     -1.03317360	      6.71379377	      2.32997394	    -26.61193253	    -19.35459430	     -0.33780140	     -2.67182039	     -0.60494112	     -7.44125755	    -28.08091694	      5.58740828	      4.34165571	    -24.42613024	     -0.42631640	     13.00335421	      9.58724191	     -4.89096206	    -20.53534366	      7.43625251	     -6.64398524	    -11.65044312	    -10.45139370	      3.98275992	     19.70955566	     89.95437384	      0.00000000	      0.00000000	     14.95838966	     12.54905735	     10.57709158	     48.75092963	     89.95437384	      0.00000000	      0.00000000
      1.45000000	     15.33032954	     -5.39824668	      5.16166758	      0.64051332	      0.92375910	     -1.03235667	      6.39679705	      2.85019775	    -25.95453787	    -20.46106720	     -0.35711299	     -2.09967964	     -1.38532828	     -7.27847644	    -27.92913462	      6.22742006	      3.80449740	    -26.04406900	     -0.45455475	     11.50145006	     10.41642585	     -4.60789069	    -20.41392945	      8.03551673	     -6.66993542	    -11.32746654	    -10.52543221	      3.98182745	     19.46872278	     89.95437384	      0.00000000	      0.00000000	     14.52834580	     12.20073291	     10.67311115	     48.16135307	     89.95437384	      0.00000000	      0.00000000
      1.46000000	     15.59695047	     -5.88569020	      5.40369862	      0.65171557	      0.92568246	     -1.03147345	      5.56223325	      3.77929618	    -24.55633617	    -20.61772863	     -0.35984725	     -1.90307924	     -2.43409384	     -6.71720447	    -27.90196840	      6.80164897	      3.03334008	    -27.65801935	     -0.48272350	      9.82190961	     11.77461913	     -4.24179290	    -20.48298628	      8.67852062	     -6.59063762	    -10.93982536	    -10.62578142	      4.02884607	     19.29479288	     89.95437384	      0.00000000	      0.00000000	     14.06786622	     11.80862127	     10.74214415	     47.47837296	     89.95437384	      0.00000000	      0.00000000
      1.47000000	     15.86214664	     -6.27368901	      5.44553148	      0.66317109	      0.92780351	     -1.03030516	      4.69959463	      4.56773377	    -23.27778101	    -20.73627385	     -0.36191625	     -1.66560553	     -2.97389105	     -6.18429157	    -27.76163050	      7.32237686	      2.96736340	    -29.41757771	     -0.51343359	      7.59116102	     12.37020373	     -3.87344307	    -20.54257307	      9.14887189	     -6.32220031	    -10.55019072	    -10.68820173	      4.00661903	     19.06926525	     89.95437384	      0.00000000	      0.00000000	     13.58770935	     11.39743232	     10.81581697	     46.62380451	     89.95437384	      0.00000000	      0.00000000
      1.48000000	     16.07447270	     -6.38558587	      5.44184982	      0.67434266	      0.92995057	     -1.02907330	      3.89302181	      4.99168734	    -22.33729651	    -20.94751800	     -0.36560316	     -1.24992451	     -3.42094313	     -5.89505540	    -27.39894206	      7.57791420	      2.93964051	    -31.33676428	     -0.54692971	      5.00975840	     12.79725040	     -3.52960255	    -20.57707845	      9.28405827	     -6.04529280	    -10.14958289	    -10.72636811	      4.15277033	     18.90886780	     89.95437384	      0.00000000	      0.00000000	     13.17075293	     11.12430508	     10.50631667	     45.57445478	     89.95437384	      0.00000000	      0.00000000
      1.49000000	     16.39049585	     -6.69941930	      5.43838672	      0.68542331	      0.93243442	     -1.02726457	      2.57911563	      6.07288508	    -20.49463870	    -20.20208690	     -0.35259293	     -1.43949640	     -6.15299433	     -4.51017190	    -26.97447027	      8.16963052	      3.23056306	    -33.42624545	     -0.58339804	      2.29265945	     13.09083445	     -2.89979959	    -20.73331826	      9.57069704	     -5.61250993	     -9.70731830	    -10.61791290	      3.66982458	     18.72522166	     89.95437384	      0.00000000	      0.00000000	     12.76840312	     10.82469524	     10.22005646	     44.48658260	     89.95437384	      0.00000000	      0.00000000
      1.50000000	     16.60524444	     -6.40627107	      5.22974975	      0.69600987	      0.93460360	     -1.02573641	      1.60624853	      5.96621993	    -20.19966306	    -20.25341345	     -0.35348875	     -0.91981626	     -5.98680562	     -4.42275354	    -26.33331010	      7.97289205	      3.20679520	    -35.60840212	     -0.62148386	      0.08501432	     13.21652481	     -2.68099972	    -20.95447245	      9.17112218	     -5.20051969	     -9.25468480	    -10.58333635	      3.81849372	     18.76913789	     89.95437384	      0.00000000	      0.00000000	     12.35147770	     10.56286446	     10.01928415	     43.56304009	     89.95437384	      0.00000000	      0.00000000
      1.51000000	     16.73149449	     -6.44831272	      5.41752771	      0.70706727	      0.93672295	     -1.02415196	      0.38249224	      6.42868393	    -19.92317376	    -19.56210020	     -0.34142306	     -0.35718727	     -5.70666063	     -4.27942949	    -25.44005873	      8.39115422	      3.14052518	    -37.72266139	     -0.65838464	     -3.13816814	     14.11566700	     -2.25561918	    -20.83584619	      9.19697261	     -5.16620072	     -8.82200106	    -10.48636319	      3.77219517	     18.77010218	     89.95437384	      0.00000000	      0.00000000	     11.85156056	     10.45890525	      9.53238055	     42.25795099	     89.95437384	      0.00000000	      0.00000000
